<svg width="24" height="24" xmlns="http://www.w3.org/2000/svg">
 <g>
  <title>background</title>
  <rect x="-1" y="-1" width="5" height="5" id="canvas_background" fill="none"/>
 </g>

 <g>
  <title>Layer 1</title>
  <path d="m0,0l24,0l0,24l-24,0l0,-24z" fill="none" id="svg_1"/>
  <path d="m19,8l-14,0c-1.66,0 -3,1.34 -3,3l0,6l4,0l0,4l12,0l0,-4l4,0l0,-6c0,-1.66 -1.34,-3 -3,-3zm-3,11l-8,0l0,-5l8,0l0,5zm3,-7c-0.55,0 -1,-0.45 -1,-1s0.45,-1 1,-1s1,0.45 1,1s-0.45,1 -1,1zm-1,-9l-12,0l0,4l12,0l0,-4z" id="svg_2" fill="#ffc107" fill-opacity="0.56"/>
 </g>
</svg>