<svg width="24" height="24" xmlns="http://www.w3.org/2000/svg">

 <g>
  <title>background</title>
  <rect fill="none" id="canvas_background" height="602" width="802" y="-1" x="-1"/>
 </g>
 <g>
  <title>Layer 1</title>
  <path id="svg_1" fill="none" d="m0,0l24,0l0,24l-24,0l0,-24z"/>
  <path fill="#a8aaab" id="svg_2" d="m20,2l-12,0c-1.1,0 -2,0.9 -2,2l0,12c0,1.1 0.9,2 2,2l12,0c1.1,0 2,-0.9 2,-2l0,-12c0,-1.1 -0.9,-2 -2,-2zm-8.5,7.5c0,0.83 -0.67,1.5 -1.5,1.5l-1,0l0,2l-1.5,0l0,-6l2.5,0c0.83,0 1.5,0.67 1.5,1.5l0,1zm5,2c0,0.83 -0.67,1.5 -1.5,1.5l-2.5,0l0,-6l2.5,0c0.83,0 1.5,0.67 1.5,1.5l0,3zm4,-3l-1.5,0l0,1l1.5,0l0,1.5l-1.5,0l0,2l-1.5,0l0,-6l3,0l0,1.5zm-11.5,1l1,0l0,-1l-1,0l0,1zm-5,-3.5l-2,0l0,14c0,1.1 0.9,2 2,2l14,0l0,-2l-14,0l0,-14zm10,5.5l1,0l0,-3l-1,0l0,3z"/>
 </g>
</svg>